<svg id="573a65ba-e350-40b7-9a88-500b270614af" data-name="ee5db3e1-a6dd-42df-bf07-68cd702fff8a" xmlns="http://www.w3.org/2000/svg" viewBox="0 0 22.21 14"><title>bullet-side</title><path d="M7,14A7,7,0,0,1,.13,7,7,7,0,0,1,7,0a7,7,0,0,1,6.88,7A7,7,0,0,1,7,14ZM7,1A6,6,0,0,0,1.13,7,6,6,0,0,0,7,13a6,6,0,0,0,5.88-6A6,6,0,0,0,7,1Z" fill="#231f20"/><path d="M15.33,14A7,7,0,0,1,8.46,7a7,7,0,0,1,6.87-7,7,7,0,0,1,6.88,7A7,7,0,0,1,15.33,14ZM15.33,1A6,6,0,0,0,9.46,7a6,6,0,0,0,5.87,6,6,6,0,0,0,5.88-6A6,6,0,0,0,15.33,1Z" fill="#231f20"/></svg>