<?xml version="1.0" encoding="utf-8"?>
<!-- Generator: Adobe Illustrator 22.1.0, SVG Export Plug-In . SVG Version: 6.00 Build 0)  -->
<svg version="1.1" id="ee5db3e1-a6dd-42df-bf07-68cd702fff8a"
	 xmlns="http://www.w3.org/2000/svg" xmlns:xlink="http://www.w3.org/1999/xlink" x="0px" y="0px" viewBox="0 0 22.2 14"
	 style="enable-background:new 0 0 22.2 14;" xml:space="preserve">
<style type="text/css">
	.st0{fill:#231F20;}
</style>
<title>bullet-contrast</title>
<g>
	<path class="st0" d="M7,14c-3.8,0-6.9-3.2-6.9-7c0-3.9,3.1-7,6.9-7s6.9,3.2,6.9,7C13.9,10.9,10.8,14,7,14z M7,1
		C3.8,1,1.1,3.7,1.1,7s2.6,6,5.9,6s5.9-2.7,5.9-6S10.2,1,7,1z"/>
</g>
<g>
	<path class="st0" d="M15.3,14c-3.8,0-6.9-3.2-6.9-7c0-3.9,3.1-7,6.9-7s6.9,3.2,6.9,7C22.2,10.9,19.1,14,15.3,14z M15.3,1
		c-3.2,0-5.9,2.7-5.9,6s2.6,6,5.9,6s5.9-2.7,5.9-6S18.6,1,15.3,1z"/>
</g>
</svg>
