<?xml version="1.0" encoding="utf-8"?>
<!-- Generator: Adobe Illustrator 22.1.0, SVG Export Plug-In . SVG Version: 6.00 Build 0)  -->
<svg version="1.1" id="b74ec648-29e4-4aaf-a657-5e8a97fa58ca"
	 xmlns="http://www.w3.org/2000/svg" xmlns:xlink="http://www.w3.org/1999/xlink" x="0px" y="0px" viewBox="0 0 14 14"
	 style="enable-background:new 0 0 14 14;" xml:space="preserve">
<style type="text/css">
	.st0{fill:#231F20;}
</style>
<title>bullet-close</title>
<path class="st0" d="M7,0C3.1,0,0,3.1,0,7c0,3.9,3.1,7,7,7c3.9,0,7-3.1,7-7C14,3.1,10.9,0,7,0z M7.7,7l3.9-3.9C12.5,4.2,13,5.5,13,7
	c0,1.5-0.5,2.8-1.4,3.9L7.7,7z M10.9,2.4L7,6.3L3.1,2.4C4.2,1.5,5.5,1,7,1C8.5,1,9.8,1.5,10.9,2.4z M2.4,3.1L6.3,7l-3.9,3.9
	C1.5,9.8,1,8.5,1,7C1,5.5,1.5,4.2,2.4,3.1z M3.1,11.6L7,7.7l3.9,3.9C9.8,12.5,8.5,13,7,13C5.5,13,4.2,12.5,3.1,11.6z"/>
</svg>
